<svg width="73" height="73" viewBox="0 0 73 73" fill="none" xmlns="http://www.w3.org/2000/svg">
<path fill-rule="evenodd" clip-rule="evenodd" d="M4.86646 7.3C4.86646 5.36392 5.63556 3.50714 7.00458 2.13812C8.37359 0.769105 10.2304 0 12.1665 0L52.1072 0L68.1331 16.0259V65.7C68.1331 67.6361 67.364 69.4929 65.995 70.8619C64.626 72.2309 62.7692 73 60.8331 73H12.1665C10.2304 73 8.37359 72.2309 7.00458 70.8619C5.63556 69.4929 4.86646 67.6361 4.86646 65.7V7.3ZM34.0665 19.4667H19.4665V24.3333H34.0665V19.4667ZM53.5331 34.0667H19.4665V38.9333H53.5331V34.0667ZM30.6841 53.0856C28.718 53.6112 27.1801 55.115 26.6448 56.7356L22.0215 55.1977C23.1067 51.9517 25.9489 49.3188 29.4188 48.3844C32.8595 47.4597 36.7869 48.2384 40.1839 51.3579C41.2059 51.0627 42.2149 50.8891 43.2109 50.8372C45.8389 50.6961 48.1895 51.3579 50.2092 52.1999C51.6935 52.8179 53.1292 53.5966 54.3459 54.2536C54.7287 54.4677 55.0888 54.6624 55.4263 54.8376C56.9982 55.6649 57.8596 55.9667 58.3998 55.9667V60.8333C56.5018 60.8333 54.633 59.9184 53.1633 59.1495L51.8395 58.4389C50.7016 57.7982 49.5321 57.215 48.3355 56.6918C46.7101 56.0105 45.1089 55.6114 43.4737 55.699C43.2296 55.7125 42.9861 55.7353 42.7437 55.7671L42.7486 55.8353C42.88 57.4121 42.2279 58.7115 41.3859 59.6459C39.8383 61.3687 37.3125 62.2739 35.4145 62.6145C34.4307 62.8088 33.4228 62.8498 32.4264 62.7362C31.8613 62.6639 31.3158 62.4821 30.8204 62.2009C30.4345 61.98 30.1022 61.6765 29.8473 61.3122C29.5924 60.9479 29.4211 60.5318 29.3458 60.0936C29.2275 59.2748 29.4203 58.4414 29.886 57.7576C30.2406 57.2394 30.6703 56.7769 31.1611 56.3852C32.0857 55.6211 33.4241 54.7938 35.2199 53.8886L35.3513 53.7913C34.6611 53.3628 33.891 53.0793 33.0878 52.958C32.2846 52.8366 31.47 52.8801 30.6841 53.0856Z" fill="#2D5016"/>
</svg>
