<svg width="1563" height="356" viewBox="0 0 1563 356" fill="none" xmlns="http://www.w3.org/2000/svg">
<path d="M40 52.5L5.36442e-07 7.49997H300L340 52.5L111 296H323L363 341H55L15.5 297L14.5 296.5L15 296L239.5 52.5H40ZM444.48 165.5L417.48 120C440.814 114 466.647 108.333 494.98 103C523.647 97.6667 541.647 95.1667 548.98 95.5C556.314 95.8333 570.98 106.833 592.98 128.5C614.98 149.833 629.814 166.167 637.48 177.5C640.147 181.5 641.48 195 641.48 218C641.48 240.667 640.98 266.667 639.98 296C639.314 325.333 639.147 345.167 639.48 355.5L577.48 341L577.98 315.5C550.98 342.5 528.98 356 511.98 356C495.98 355.667 475.647 340.5 450.98 310.5C426.314 280.5 413.98 259 413.98 246C413.98 235.667 420.98 226.167 434.98 217.5C448.98 208.833 465.98 202.167 485.98 197.5C506.314 192.5 524.314 188.667 539.98 186C555.647 183.333 568.98 181.5 579.98 180.5L580.48 167C580.814 151 572.314 142.333 554.98 141C538.98 140 505.314 147.167 453.98 162.5H453.48L452.98 163H452.48H451.98L451.48 163.5H450.98H450.48L449.98 164H449.48H448.98L448.48 164.5H447.98H447.48H446.98L446.48 165H445.98H445.48L444.98 165.5H444.48ZM469.48 291C472.48 295.667 478.147 298.667 486.48 300C494.814 301.333 507.314 299.167 523.98 293.5C540.98 287.5 559.314 277.167 578.98 262.5L579.48 218.5C491.48 244.167 454.814 268.333 469.48 291ZM735.813 116L799.813 271.5L865.813 102L928.313 116L835.313 355.5H834.813L772.813 341.5H772.313L673.313 102L735.813 116ZM997.602 71.5C980.602 63.5 967.935 51.3333 959.602 35C960.268 29.6667 965.268 22.8333 974.602 14.5C983.935 6.16665 991.435 1.33332 997.102 -2.0504e-05C1014.1 7.66665 1026.6 19.5 1034.6 35.5C1028.93 49.8333 1016.6 61.8333 997.602 71.5ZM1027.6 116V355.5L965.102 341.5V102L1027.6 116ZM1160.79 116V153C1185.12 114.667 1205.79 95.5 1222.79 95.5C1231.12 95.5 1245.12 99.8333 1264.79 108.5C1284.45 116.833 1300.95 125.5 1314.29 134.5L1279.79 184.5C1259.12 169.167 1241.12 160.833 1225.79 159.5C1210.79 157.833 1198.79 160.833 1189.79 168.5C1180.79 175.833 1171.12 187.833 1160.79 204.5V355.5L1098.29 341.5V102L1160.79 116ZM1365.87 165.5L1338.87 120C1362.2 114 1388.03 108.333 1416.37 103C1445.03 97.6667 1463.03 95.1667 1470.37 95.5C1477.7 95.8333 1492.37 106.833 1514.37 128.5C1536.37 149.833 1551.2 166.167 1558.87 177.5C1561.53 181.5 1562.87 195 1562.87 218C1562.87 240.667 1562.37 266.667 1561.37 296C1560.7 325.333 1560.53 345.167 1560.87 355.5L1498.87 341L1499.37 315.5C1472.37 342.5 1450.37 356 1433.37 356C1417.37 355.667 1397.03 340.5 1372.37 310.5C1347.7 280.5 1335.37 259 1335.37 246C1335.37 235.667 1342.37 226.167 1356.37 217.5C1370.37 208.833 1387.37 202.167 1407.37 197.5C1427.7 192.5 1445.7 188.667 1461.37 186C1477.03 183.333 1490.37 181.5 1501.37 180.5L1501.87 167C1502.2 151 1493.7 142.333 1476.37 141C1460.37 140 1426.7 147.167 1375.37 162.5H1374.87L1374.37 163H1373.87H1373.37L1372.87 163.5H1372.37H1371.87L1371.37 164H1370.87H1370.37L1369.87 164.5H1369.37H1368.87H1368.37L1367.87 165H1367.37H1366.87L1366.37 165.5H1365.87ZM1390.87 291C1393.87 295.667 1399.53 298.667 1407.87 300C1416.2 301.333 1428.7 299.167 1445.37 293.5C1462.37 287.5 1480.7 277.167 1500.37 262.5L1500.87 218.5C1412.87 244.167 1376.2 268.333 1390.87 291Z" fill="#2D5016"/>
</svg>
