<svg width="110" height="60" viewBox="0 0 110 60" fill="none" xmlns="http://www.w3.org/2000/svg">
<path d="M3.03553 3.805L0.235527 0.654998H21.2355L24.0355 3.805L8.00553 20.85H22.8455L25.6455 24H4.08553L1.32053 20.92L1.25053 20.885L1.28553 20.85L17.0005 3.805H3.03553ZM31.3492 11.715L29.4592 8.53C31.0925 8.11 32.9008 7.71333 34.8842 7.34C36.8908 6.96667 38.1508 6.79167 38.6642 6.815C39.1775 6.83833 40.2042 7.60833 41.7442 9.125C43.2842 10.6183 44.3225 11.7617 44.8592 12.555C45.0458 12.835 45.1392 13.78 45.1392 15.39C45.1392 16.9767 45.1042 18.7967 45.0342 20.85C44.9875 22.9033 44.9758 24.2917 44.9992 25.015L40.6592 24L40.6942 22.215C38.8042 24.105 37.2642 25.05 36.0742 25.05C34.9542 25.0267 33.5308 23.965 31.8042 21.865C30.0775 19.765 29.2142 18.26 29.2142 17.35C29.2142 16.6267 29.7042 15.9617 30.6842 15.355C31.6642 14.7483 32.8542 14.2817 34.2542 13.955C35.6775 13.605 36.9375 13.3367 38.0342 13.15C39.1308 12.9633 40.0642 12.835 40.8342 12.765L40.8692 11.82C40.8925 10.7 40.2975 10.0933 39.0842 10C37.9642 9.93 35.6075 10.4317 32.0142 11.505H31.9792L31.9442 11.54H31.9092H31.8742L31.8392 11.575H31.8042H31.7692L31.7342 11.61H31.6992H31.6642L31.6292 11.645H31.5942H31.5592H31.5242L31.4892 11.68H31.4542H31.4192L31.3842 11.715H31.3492ZM33.0992 20.5C33.3092 20.8267 33.7058 21.0367 34.2892 21.13C34.8725 21.2233 35.7475 21.0717 36.9142 20.675C38.1042 20.255 39.3875 19.5317 40.7642 18.505L40.7992 15.425C34.6392 17.2217 32.0725 18.9133 33.0992 20.5ZM51.7424 8.25L56.2224 19.135L60.8424 7.27L65.2174 8.25L58.7074 25.015H58.6724L54.3324 24.035H54.2974L47.3674 7.27L51.7424 8.25ZM70.0676 5.135C68.8776 4.575 67.991 3.72333 67.4076 2.58C67.4543 2.20667 67.8043 1.72833 68.4576 1.145C69.111 0.561665 69.636 0.223332 70.0326 0.129999C71.2226 0.666665 72.0976 1.495 72.6576 2.615C72.261 3.61833 71.3976 4.45833 70.0676 5.135ZM72.1676 8.25V25.015L67.7926 24.035V7.27L72.1676 8.25ZM81.4905 8.25V10.84C83.1938 8.15667 84.6405 6.815 85.8305 6.815C86.4138 6.815 87.3938 7.11833 88.7705 7.725C90.1472 8.30833 91.3022 8.915 92.2355 9.545L89.8205 13.045C88.3738 11.9717 87.1138 11.3883 86.0405 11.295C84.9905 11.1783 84.1505 11.3883 83.5205 11.925C82.8905 12.4383 82.2138 13.2783 81.4905 14.445V25.015L77.1155 24.035V7.27L81.4905 8.25ZM95.8462 11.715L93.9562 8.53C95.5896 8.11 97.3979 7.71333 99.3812 7.34C101.388 6.96667 102.648 6.79167 103.161 6.815C103.675 6.83833 104.701 7.60833 106.241 9.125C107.781 10.6183 108.82 11.7617 109.356 12.555C109.543 12.835 109.636 13.78 109.636 15.39C109.636 16.9767 109.601 18.7967 109.531 20.85C109.485 22.9033 109.473 24.2917 109.496 25.015L105.156 24L105.191 22.215C103.301 24.105 101.761 25.05 100.571 25.05C99.4512 25.0267 98.0279 23.965 96.3012 21.865C94.5746 19.765 93.7112 18.26 93.7112 17.35C93.7112 16.6267 94.2012 15.9617 95.1812 15.355C96.1612 14.7483 97.3512 14.2817 98.7512 13.955C100.175 13.605 101.435 13.3367 102.531 13.15C103.628 12.9633 104.561 12.835 105.331 12.765L105.366 11.82C105.39 10.7 104.795 10.0933 103.581 10C102.461 9.93 100.105 10.4317 96.5112 11.505H96.4762L96.4412 11.54H96.4062H96.3712L96.3362 11.575H96.3012H96.2662L96.2312 11.61H96.1962H96.1612L96.1262 11.645H96.0912H96.0562H96.0212L95.9862 11.68H95.9512H95.9162L95.8812 11.715H95.8462ZM97.5962 20.5C97.8062 20.8267 98.2029 21.0367 98.7862 21.13C99.3696 21.2233 100.245 21.0717 101.411 20.675C102.601 20.255 103.885 19.5317 105.261 18.505L105.296 15.425C99.1362 17.2217 96.5696 18.9133 97.5962 20.5ZM28.9052 57.965H28.8702L24.0052 56.95V34.69L24.0402 34.725V34.69C25.0435 34.3633 27.1085 34.1767 30.2352 34.13C33.3618 34.0833 35.3918 34.305 36.3252 34.795C38.7752 36.4983 41.9835 39.625 45.9502 44.175C46.1835 44.455 46.3702 44.9917 46.5102 45.785C46.6502 46.5783 46.6502 47.535 46.5102 48.655C46.3702 49.775 46.0902 50.9067 45.6702 52.05C45.2502 53.1933 44.5152 54.3017 43.4652 55.375C42.4152 56.4483 41.1318 57.2767 39.6152 57.86C38.2152 58.35 36.5235 58.5833 34.5402 58.56C32.5568 58.56 30.6785 58.3617 28.9052 57.965ZM39.4752 40.29C38.6585 39.6133 37.7952 39.0883 36.8852 38.715C35.9985 38.3417 35.0302 38.1317 33.9802 38.085C32.9535 38.015 32.1135 38.0033 31.4602 38.05C30.8068 38.0967 29.9318 38.19 28.8352 38.33L28.9052 55.865C30.5152 56.075 32.0552 55.9583 33.5252 55.515C34.9952 55.0483 36.2552 54.36 37.3052 53.45C38.3552 52.54 39.2418 51.49 39.9652 50.3C40.6885 49.0867 41.1552 47.8733 41.3652 46.66C41.5985 45.4467 41.5635 44.2683 41.2602 43.125C40.9568 41.9817 40.3618 41.0367 39.4752 40.29ZM52.0621 45.715L50.1721 42.53C51.8054 42.11 53.6137 41.7133 55.5971 41.34C57.6037 40.9667 58.8637 40.7917 59.3771 40.815C59.8904 40.8383 60.9171 41.6083 62.4571 43.125C63.9971 44.6183 65.0354 45.7617 65.5721 46.555C65.7587 46.835 65.8521 47.78 65.8521 49.39C65.8521 50.9767 65.8171 52.7967 65.7471 54.85C65.7004 56.9033 65.6887 58.2917 65.7121 59.015L61.3721 58L61.4071 56.215C59.5171 58.105 57.9771 59.05 56.7871 59.05C55.6671 59.0267 54.2437 57.965 52.5171 55.865C50.7904 53.765 49.9271 52.26 49.9271 51.35C49.9271 50.6267 50.4171 49.9617 51.3971 49.355C52.3771 48.7483 53.5671 48.2817 54.9671 47.955C56.3904 47.605 57.6504 47.3367 58.7471 47.15C59.8437 46.9633 60.7771 46.835 61.5471 46.765L61.5821 45.82C61.6054 44.7 61.0104 44.0933 59.7971 44C58.6771 43.93 56.3204 44.4317 52.7271 45.505H52.6921L52.6571 45.54H52.6221H52.5871L52.5521 45.575H52.5171H52.4821L52.4471 45.61H52.4121H52.3771L52.3421 45.645H52.3071H52.2721H52.2371L52.2021 45.68H52.1671H52.1321L52.0971 45.715H52.0621ZM53.8121 54.5C54.0221 54.8267 54.4187 55.0367 55.0021 55.13C55.5854 55.2233 56.4604 55.0717 57.6271 54.675C58.8171 54.255 60.1004 53.5317 61.4771 52.505L61.5121 49.425C55.3521 51.2217 52.7854 52.9133 53.8121 54.5ZM81.1353 44.805C79.5953 43.755 77.997 43.9183 76.3403 45.295C74.9636 46.4617 74.042 48.0133 73.5753 49.95C73.062 52.1667 73.4586 53.835 74.7653 54.955C74.9286 55.095 75.1036 55.2233 75.2903 55.34C76.2236 55.8533 77.1803 55.97 78.1603 55.69C79.1636 55.41 80.027 54.7917 80.7503 53.835C81.497 52.8783 82.0803 51.8633 82.5003 50.79C82.9203 49.6933 83.0253 48.585 82.8153 47.465C82.6053 46.3217 82.0453 45.435 81.1353 44.805ZM84.6353 45.085C85.312 45.6917 85.837 46.4267 86.2103 47.29C86.5836 48.13 86.7936 48.9933 86.8403 49.88C86.9103 50.7667 86.8286 51.665 86.5953 52.575C86.3853 53.485 86.0586 54.3367 85.6153 55.13C85.172 55.9233 84.612 56.635 83.9353 57.265C83.282 57.8717 82.5586 58.3267 81.7653 58.63C80.972 58.9567 80.0853 59.085 79.1053 59.015C78.1486 58.945 77.1686 58.6417 76.1653 58.105C74.8586 57.405 73.5753 56.5183 72.3153 55.445C71.312 54.5817 70.5653 53.6133 70.0753 52.54C69.5853 51.4433 69.352 50.3817 69.3753 49.355C69.422 48.3283 69.6203 47.3017 69.9703 46.275C70.3436 45.2483 70.8686 44.3617 71.5453 43.615C72.2453 42.8683 73.0036 42.2383 73.8203 41.725C74.637 41.1883 75.512 40.9083 76.4453 40.885C77.402 40.8617 78.3236 41.06 79.2103 41.48C81.4736 42.67 83.282 43.8717 84.6353 45.085Z" fill="#2D5016"/>
</svg>
